<?xml version="1.0" standalone="no"?>
<!DOCTYPE svg PUBLIC "-//W3C//DTD SVG 20010904//EN"
 "http://www.w3.org/TR/2001/REC-SVG-20010904/DTD/svg10.dtd">
<svg version="1.0" xmlns="http://www.w3.org/2000/svg"
 width="512.000000pt" height="512.000000pt" viewBox="0 0 512.000000 512.000000"
 preserveAspectRatio="xMidYMid meet">

<g transform="translate(0.000000,512.000000) scale(0.100000,-0.100000)"
fill="#000000" stroke="none">
<path d="M2240 5104 c-41 -18 -86 -59 -106 -95 -7 -15 -23 -80 -34 -145 -11
-66 -23 -128 -25 -140 -4 -16 -18 -24 -62 -34 -149 -33 -401 -137 -568 -233
l-60 -35 -95 70 c-52 38 -113 78 -135 89 -48 23 -123 24 -172 4 -39 -17 -384
-351 -430 -417 -31 -45 -42 -126 -24 -180 6 -18 47 -83 90 -143 l79 -110 -30
-50 c-91 -153 -205 -429 -238 -578 -10 -44 -18 -58 -34 -62 -12 -2 -74 -14
-140 -25 -128 -22 -157 -33 -198 -77 -55 -57 -58 -78 -58 -383 0 -305 3 -326
58 -383 41 -44 70 -55 198 -77 66 -11 128 -23 140 -25 16 -4 24 -18 34 -62 33
-149 147 -425 238 -578 l30 -50 -79 -110 c-43 -60 -84 -125 -90 -143 -18 -54
-7 -135 24 -180 46 -66 391 -400 430 -417 49 -20 124 -19 172 4 22 11 83 51
135 89 l95 70 60 -35 c167 -96 419 -200 568 -233 44 -10 58 -18 62 -34 2 -12
14 -74 25 -140 22 -128 33 -157 77 -198 57 -55 78 -58 383 -58 305 0 326 3
383 58 44 41 55 70 77 198 11 66 23 128 25 140 4 16 18 24 62 34 149 33 425
147 578 238 l50 30 110 -79 c60 -43 125 -84 143 -90 54 -18 135 -7 180 24 66
46 400 391 417 430 20 49 19 124 -5 172 -10 22 -50 83 -88 135 l-70 95 35 60
c96 166 200 419 233 568 10 44 18 58 34 62 12 2 74 14 140 25 128 22 157 33
198 77 55 57 58 78 58 383 0 305 -3 326 -58 383 -41 44 -70 55 -198 77 -66 11
-128 23 -140 25 -16 4 -24 18 -34 62 -33 149 -147 424 -238 578 l-30 50 69 95
c39 52 79 113 89 135 24 48 25 123 5 172 -17 39 -351 384 -417 430 -45 31
-126 42 -180 24 -18 -6 -83 -47 -143 -90 l-110 -79 -50 30 c-153 91 -429 205
-578 238 -44 10 -58 18 -62 34 -2 12 -14 74 -25 140 -22 128 -33 157 -77 198
-58 55 -77 58 -385 58 -230 -1 -290 -4 -318 -16z m581 -284 c9 -52 22 -128 29
-168 18 -107 28 -116 191 -156 208 -53 402 -135 589 -250 114 -70 109 -72 345
98 l79 57 172 -172 c95 -95 170 -177 167 -183 -4 -6 -43 -63 -88 -126 -45 -63
-87 -125 -94 -137 -21 -40 -12 -77 40 -163 121 -200 192 -370 245 -579 40
-163 49 -173 156 -191 40 -7 116 -20 168 -29 l95 -16 0 -245 0 -245 -95 -16
c-52 -9 -128 -22 -168 -29 -107 -18 -116 -28 -156 -191 -53 -209 -124 -379
-245 -579 -52 -86 -61 -123 -40 -163 7 -12 49 -74 94 -137 45 -63 84 -120 88
-126 3 -6 -72 -88 -167 -183 l-172 -172 -79 57 c-238 171 -229 169 -355 93
-200 -121 -370 -192 -579 -245 -163 -40 -173 -49 -191 -156 -7 -40 -20 -116
-29 -168 l-16 -95 -245 0 -245 0 -16 95 c-9 52 -22 128 -29 168 -18 107 -28
116 -191 156 -209 53 -379 124 -579 245 -86 52 -123 61 -163 40 -12 -7 -74
-49 -137 -94 -63 -45 -120 -84 -126 -88 -6 -3 -88 72 -183 167 l-172 172 57
79 c171 238 169 229 93 355 -121 200 -192 370 -245 579 -40 163 -49 173 -156
191 -40 7 -116 20 -168 29 l-95 16 0 245 0 245 95 16 c52 9 128 22 168 29 107
18 116 28 156 191 53 209 124 379 245 579 52 86 61 123 40 163 -7 12 -49 74
-94 137 -45 63 -84 120 -88 126 -3 6 72 88 167 183 l172 172 79 -57 c238 -171
229 -169 355 -93 197 119 391 201 578 245 130 30 147 37 166 66 8 13 27 93 41
178 14 85 28 161 30 168 4 10 58 12 247 10 l243 -3 16 -95z"/>
<path d="M2316 4145 c-225 -37 -510 -145 -542 -206 -28 -55 -11 -110 43 -138
35 -18 70 -13 131 18 84 42 219 88 335 113 146 31 408 31 554 0 287 -62 499
-178 708 -387 129 -129 192 -215 268 -365 100 -200 141 -379 141 -620 0 -299
-73 -540 -239 -790 -64 -97 -268 -301 -365 -365 -396 -263 -868 -316 -1303
-145 -191 74 -352 184 -502 342 -184 192 -299 412 -357 681 -31 146 -31 408 0
554 25 116 71 251 113 335 31 61 36 96 18 131 -28 54 -83 71 -138 43 -42 -22
-124 -202 -171 -376 -46 -174 -64 -451 -40 -625 36 -250 139 -508 289 -720 72
-103 263 -294 366 -366 218 -154 468 -253 733 -290 122 -17 402 -6 525 20 212
46 429 141 604 264 113 80 300 267 382 382 72 102 177 312 215 429 49 149 67
261 73 443 6 188 -3 275 -43 443 -127 518 -533 958 -1044 1130 -164 55 -265
72 -470 76 -138 2 -221 -1 -284 -11z"/>
<path d="M1429 3691 c-63 -64 -17 -171 74 -171 38 0 97 57 97 94 0 35 -25 83
-49 96 -39 20 -91 12 -122 -19z"/>
<path d="M1593 3050 c-12 -5 -30 -21 -40 -37 -16 -25 -18 -61 -21 -418 -2
-214 0 -409 3 -433 3 -23 17 -55 30 -70 l23 -27 222 0 222 0 24 28 c33 38 33
96 0 134 -24 28 -24 28 -170 31 l-146 3 0 100 0 99 80 0 c91 0 126 12 146 51
27 52 8 115 -41 137 -14 7 -62 12 -105 12 l-80 0 0 99 0 100 146 3 c146 3 146
3 170 31 33 38 33 96 0 134 l-24 28 -209 2 c-114 1 -218 -2 -230 -7z"/>
<path d="M2283 3050 c-12 -5 -30 -21 -40 -37 -17 -25 -18 -59 -18 -453 0 -393
1 -428 18 -453 37 -57 120 -58 161 -4 19 26 21 45 24 193 5 221 9 220 129 -21
61 -122 101 -190 118 -201 35 -23 93 -13 123 21 37 44 29 80 -53 246 l-76 150
50 45 c72 65 101 129 101 223 0 97 -27 159 -98 222 -72 65 -124 79 -286 78
-72 0 -141 -4 -153 -9z m313 -223 c16 -19 24 -40 24 -67 0 -27 -8 -48 -24 -67
-21 -24 -32 -28 -95 -31 l-71 -4 0 102 0 102 71 -4 c63 -3 74 -7 95 -31z"/>
<path d="M3043 3050 c-12 -5 -30 -21 -40 -37 -17 -25 -18 -59 -18 -453 0 -393
1 -428 18 -453 37 -57 120 -58 161 -4 19 26 21 45 24 192 l4 163 86 4 c101 5
163 32 224 95 56 58 78 114 78 203 0 96 -27 158 -98 221 -72 65 -124 79 -286
78 -72 0 -141 -4 -153 -9z m313 -223 c16 -19 24 -40 24 -67 0 -27 -8 -48 -24
-67 -21 -24 -32 -28 -95 -31 l-71 -4 0 102 0 102 71 -4 c63 -3 74 -7 95 -31z"/>
</g>
</svg>
